<svg id="visual" viewBox="0 0 900 600" width="900" height="600" xmlns="http://www.w3.org/2000/svg" xmlns:xlink="http://www.w3.org/1999/xlink" version="1.1"><path d="M0 92L18.8 86.5C37.7 81 75.3 70 112.8 75.3C150.3 80.7 187.7 102.3 225.2 110.2C262.7 118 300.3 112 337.8 98.8C375.3 85.7 412.7 65.3 450.2 58.2C487.7 51 525.3 57 562.8 69.5C600.3 82 637.7 101 675.2 109.7C712.7 118.3 750.3 116.7 787.8 106C825.3 95.3 862.7 75.7 881.3 65.8L900 56L900 0L881.3 0C862.7 0 825.3 0 787.8 0C750.3 0 712.7 0 675.2 0C637.7 0 600.3 0 562.8 0C525.3 0 487.7 0 450.2 0C412.7 0 375.3 0 337.8 0C300.3 0 262.7 0 225.2 0C187.7 0 150.3 0 112.8 0C75.3 0 37.7 0 18.8 0L0 0Z" fill="#0066FF" stroke-linecap="round" stroke-linejoin="miter"></path></svg>