<svg id="visual" viewBox="0 0 900 600" width="900" height="600" xmlns="http://www.w3.org/2000/svg" xmlns:xlink="http://www.w3.org/1999/xlink" version="1.1"><path d="M0 127L18.8 126.3C37.7 125.7 75.3 124.3 112.8 121C150.3 117.7 187.7 112.3 225.2 105.7C262.7 99 300.3 91 337.8 83.2C375.3 75.3 412.7 67.7 450.2 73.8C487.7 80 525.3 100 562.8 107.3C600.3 114.7 637.7 109.3 675.2 101C712.7 92.7 750.3 81.3 787.8 85.2C825.3 89 862.7 108 881.3 117.5L900 127L900 0L881.3 0C862.7 0 825.3 0 787.8 0C750.3 0 712.7 0 675.2 0C637.7 0 600.3 0 562.8 0C525.3 0 487.7 0 450.2 0C412.7 0 375.3 0 337.8 0C300.3 0 262.7 0 225.2 0C187.7 0 150.3 0 112.8 0C75.3 0 37.7 0 18.8 0L0 0Z" fill="#00b9ff" stroke-linecap="round" stroke-linejoin="miter"></path></svg>